<?xml version="1.0" encoding="UTF-8" standalone="no"?><!DOCTYPE svg PUBLIC "-//W3C//DTD SVG 1.1//EN" "http://www.w3.org/Graphics/SVG/1.1/DTD/svg11.dtd"><svg width="100%" height="100%" viewBox="0 0 204 204" version="1.1" xmlns="http://www.w3.org/2000/svg" xmlns:xlink="http://www.w3.org/1999/xlink" xml:space="preserve" xmlns:serif="http://www.serif.com/" style="fill-rule:evenodd;clip-rule:evenodd;stroke-linejoin:round;stroke-miterlimit:1.41421;"><path d="M16.198,169.55c-1.75,-4.668 -1.786,-9.305 0.299,-13.901c1.895,-4.148 5.24,-7.46 9.406,-9.315c19.582,-8.727 105.306,-46.885 105.306,-46.885c1.802,-7.889 4.637,-15.483 9.511,-22.498c7.228,-9.448 17.972,-13.925 31,-13.931c0.457,0 0.913,0.025 1.367,0.073c7.807,0.855 13.45,6.875 14.388,15.351c0,0 -17.274,6.793 -20.698,8.14c-0.432,0.17 -0.852,0.368 -1.258,0.592c-3.884,2.142 -5.617,3.56 -4.146,7.65c0.035,0.096 0.072,0.192 0.11,0.287c0.003,0.016 3.773,9.262 5.853,14.363c1.39,3.41 4.941,5.419 8.581,4.852c0.033,-0.006 0.066,-0.011 0.099,-0.016l21.352,-9.527c3.321,4.997 5.011,10.346 3.13,16.467c-0.021,0.07 -0.047,0.138 -0.078,0.205c-4.912,10.711 -16.103,17.227 -28.73,18.276c-9.048,-0.447 -18.169,-1.841 -27.288,-7.124c0,0 -92.132,40.428 -106.977,46.942c-1.691,0.742 -3.513,1.138 -5.359,1.166c-6.837,0.08 -12.365,-3.053 -15.868,-11.167Z"/><g><path d="M95.042,107.211l30.591,-12.465c-0.461,-4.25 -1.774,-8.877 -3.207,-12.91l-11.993,3.545c-1.004,-2.747 -2.247,-4.897 -3.861,-7.447l8.879,-9.668c-5.757,-7.26 -12.518,-13.613 -20.41,-18.945l-8.922,10.081c-2.173,-0.937 -6.82,-2.646 -9.195,-3.248l0.179,-12.608c-8.25,-2.059 -17.106,-2.106 -26.665,0.192l0.263,13.071c-2.637,0.788 -5.185,1.798 -7.645,3.029l-8.845,-9.687c-8.054,5.2 -14.894,11.755 -20.628,19.543l9.346,8.931c-1.672,2.753 -2.99,5.517 -3.908,8.292l-13.018,-0.852c-2.673,10.022 -3.289,20.101 -1.043,30.261l12.908,0.433c0.865,3.039 1.573,5.088 2.912,7.787l-10.859,6.604c2.322,4.185 4.874,8.238 8.108,11.898l30.304,-14.17c-20.227,-14.116 -16.032,-42.659 2.372,-51.812c22.17,-11.026 46.136,5.897 44.337,30.145Z"/><path d="M54.914,125.261l33.153,-14.974c2.652,-11.041 -0.82,-21.258 -11.227,-27.637c-2.985,-1.83 -6.928,-2.729 -11.485,-2.904c-8.603,-0.338 -16.681,4.132 -20.964,11.6c-1.527,2.678 -2.482,5.385 -2.879,8.189c-1.644,11.591 3.619,20.308 13.402,25.726Z"/></g></svg>