<?xml version="1.0" encoding="UTF-8" standalone="no"?><!DOCTYPE svg PUBLIC "-//W3C//DTD SVG 1.1//EN" "http://www.w3.org/Graphics/SVG/1.1/DTD/svg11.dtd"><svg width="100%" height="100%" viewBox="0 0 633 138" version="1.1" xmlns="http://www.w3.org/2000/svg" xmlns:xlink="http://www.w3.org/1999/xlink" xml:space="preserve" xmlns:serif="http://www.serif.com/" style="fill-rule:evenodd;clip-rule:evenodd;stroke-linejoin:round;stroke-miterlimit:1.41421;"><text x="376.883px" y="135.703px" style="font-family:'Arial-BoldMT', 'Arial', sans-serif;font-weight:700;font-size:37px;">MARKETING</text><g><path d="M149.7,35.519l49.758,0.145l7.405,-33.565l45.279,0.085l-8.483,33.456l46.559,0.018l7.379,-35.52l-140.879,0.004l-7.018,35.377Z"/><path d="M154.636,87.211l18.313,-0.088l7.284,19.138l2.72,0.016l-5.29,23.302l46.001,0.629l5.372,-23.951l4.086,-0.047l4.203,-19.131l26.894,0.035l-3.975,19.045l15.037,0.119l-4.928,25.432l-141.235,0.216l5.905,-25.637l15.426,0.013l4.187,-19.091Z"/></g><text x="-7.809px" y="105.519px" style="font-family:'Arial-BoldItalicMT', 'Arial', sans-serif;font-weight:700;font-style:italic;font-size:96px;">CAR<tspan x="198.441px 257.081px " y="105.519px 105.519px ">TR</tspan>ONICS</text></svg>