<?xml version="1.0" encoding="UTF-8" standalone="no"?><!DOCTYPE svg PUBLIC "-//W3C//DTD SVG 1.1//EN" "http://www.w3.org/Graphics/SVG/1.1/DTD/svg11.dtd"><svg width="100%" height="100%" viewBox="0 0 204 204" version="1.1" xmlns="http://www.w3.org/2000/svg" xmlns:xlink="http://www.w3.org/1999/xlink" xml:space="preserve" xmlns:serif="http://www.serif.com/" style="fill-rule:evenodd;clip-rule:evenodd;stroke-linecap:square;stroke-linejoin:round;stroke-miterlimit:1.5;"><g id="retail"><g id="box"><path d="M91.602,77.394l102.639,-22.623l-81.361,-19.351l-102.681,19.559l81.403,22.415Z" style="fill:#1a1a1a;"/><path d="M90.976,173.939l103.559,-29.083l-0.655,-90.185l-101.994,22.355l-0.91,96.913Z" style="fill:#262626;"/><path d="M10.173,54.988l81.734,22.265l-0.902,96.781l-81.289,-22.142l0.457,-96.904Z"/></g><g id="barcode"><path d="M15.727,132.903l-0.042,14.852" style="fill:none;stroke:#e6e6e6;stroke-width:0.35px;"/><path d="M16.561,132.927l-0.042,14.852" style="fill:none;stroke:#e6e6e6;stroke-width:0.1px;"/><path d="M15.727,132.903l-0.042,14.852" style="fill:none;stroke:#e6e6e6;stroke-width:0.35px;"/><path d="M17.006,133.057l-0.042,14.852" style="fill:none;stroke:#e6e6e6;stroke-width:0.1px;"/><path d="M18.559,133.633l-0.043,14.852" style="fill:none;stroke:#e6e6e6;stroke-width:0.1px;"/><path d="M19.004,133.762l-0.042,14.852" style="fill:none;stroke:#e6e6e6;stroke-width:0.1px;"/><path d="M19.36,133.744l-0.042,14.852" style="fill:none;stroke:#e6e6e6;stroke-width:0.1px;"/><path d="M19.805,133.873l-0.042,14.852" style="fill:none;stroke:#e6e6e6;stroke-width:0.1px;"/><path d="M20.215,133.985l-0.043,14.852" style="fill:none;stroke:#e6e6e6;stroke-width:0.1px;"/><path d="M20.66,134.115l-0.042,14.852" style="fill:none;stroke:#e6e6e6;stroke-width:0.1px;"/><path d="M21.106,134.062l-0.042,14.852" style="fill:none;stroke:#e6e6e6;stroke-width:0.1px;"/><path d="M21.552,134.192l-0.042,14.852" style="fill:none;stroke:#e6e6e6;stroke-width:0.1px;"/><path d="M17.778,133.496l-0.042,14.852" style="fill:none;stroke:#e6e6e6;stroke-width:0.35px;"/><path d="M22.429,134.611l-0.042,14.852" style="fill:none;stroke:#e6e6e6;stroke-width:0.35px;"/><path d="M23.512,134.866l-0.043,14.852" style="fill:none;stroke:#e6e6e6;stroke-width:0.35px;"/><path d="M24.564,134.996l-0.042,14.852" style="fill:none;stroke:#e6e6e6;stroke-width:0.35px;"/><path d="M25.398,135.02l-0.042,14.852" style="fill:none;stroke:#e6e6e6;stroke-width:0.1px;"/><path d="M24.564,134.996l-0.042,14.852" style="fill:none;stroke:#e6e6e6;stroke-width:0.35px;"/><path d="M25.843,135.149l-0.042,14.852" style="fill:none;stroke:#e6e6e6;stroke-width:0.1px;"/><path d="M27.396,135.725l-0.043,14.852" style="fill:none;stroke:#e6e6e6;stroke-width:0.1px;"/><path d="M27.841,135.855l-0.042,14.852" style="fill:none;stroke:#e6e6e6;stroke-width:0.1px;"/><path d="M28.197,135.836l-0.043,14.852" style="fill:none;stroke:#e6e6e6;stroke-width:0.1px;"/><path d="M28.642,135.966l-0.042,14.852" style="fill:none;stroke:#e6e6e6;stroke-width:0.1px;"/><path d="M29.051,136.077l-0.042,14.852" style="fill:none;stroke:#e6e6e6;stroke-width:0.1px;"/><path d="M29.497,136.207l-0.042,14.852" style="fill:none;stroke:#e6e6e6;stroke-width:0.1px;"/><path d="M29.943,136.155l-0.042,14.852" style="fill:none;stroke:#e6e6e6;stroke-width:0.1px;"/><path d="M30.389,136.284l-0.043,14.852" style="fill:none;stroke:#e6e6e6;stroke-width:0.1px;"/><path d="M26.615,135.588l-0.042,14.852" style="fill:none;stroke:#e6e6e6;stroke-width:0.35px;"/><path d="M31.266,136.703l-0.042,14.852" style="fill:none;stroke:#e6e6e6;stroke-width:0.35px;"/><path d="M32.349,136.958l-0.043,14.852" style="fill:none;stroke:#e6e6e6;stroke-width:0.35px;"/></g><g id="tape"><path d="M57.385,45.945l78.322,21.72l21.056,-4.84l-73.702,-21.762l-25.676,4.882Z" style="fill:#d9d9d9;"/><path d="M136.221,80.148l-0.514,-12.483l20.974,-4.914l0.559,12.208l-21.019,5.189Z" style="fill:#f2f2f2;"/></g><g transform="matrix(0.907693,-0.419634,0.380067,0.925985,224.864,-278.283)"><text x="-267.365px" y="334.444px" style="font-family:'Helvetica-Bold', 'Helvetica';font-weight:700;font-size:20.708px;fill:#737373;stroke:#000;stroke-width:0.25px;stroke-linecap:butt;stroke-miterlimit:1.41421;">F<tspan x="-255.206px -240.832px -226.457px -210.975px -205.445px -193.286px " y="334.444px 334.444px 334.444px 334.444px 334.444px 334.444px ">RAGILE</tspan></text></g></g></svg>