<?xml version="1.0" encoding="UTF-8" standalone="no"?><!DOCTYPE svg PUBLIC "-//W3C//DTD SVG 1.1//EN" "http://www.w3.org/Graphics/SVG/1.1/DTD/svg11.dtd"><svg width="100%" height="100%" viewBox="0 0 204 204" version="1.1" xmlns="http://www.w3.org/2000/svg" xmlns:xlink="http://www.w3.org/1999/xlink" xml:space="preserve" xmlns:serif="http://www.serif.com/" style="fill-rule:evenodd;clip-rule:evenodd;stroke-linecap:square;stroke-linejoin:round;stroke-miterlimit:1.5;"><g id="wholesale"><g id="retail"><g id="box"><path d="M25.386,138.393l26.922,-5.591l-21.341,-4.783l-26.933,4.834l21.352,5.54Z" style="fill:#1a1a1a;"/><path d="M25.222,162.254l27.163,-7.188l-0.171,-22.289l-26.753,5.525l-0.239,23.952Z" style="fill:#262626;"/><path d="M25.222,162.254l27.163,-7.188l-0.171,-22.289l-26.753,5.525l-0.239,23.952Z" style="fill:#262626;"/><path d="M4.027,132.856l21.439,5.502l-0.236,23.92l-21.322,-5.473l0.119,-23.949Z"/></g><g id="barcode"><path d="M5.484,152.112l-0.011,3.671" style="fill:none;stroke:#e6e6e6;stroke-width:0.35px;"/><path d="M5.703,152.118l-0.011,3.671" style="fill:none;stroke:#e6e6e6;stroke-width:0.1px;"/><path d="M5.484,152.112l-0.011,3.671" style="fill:none;stroke:#e6e6e6;stroke-width:0.35px;"/><path d="M5.82,152.15l-0.011,3.671" style="fill:none;stroke:#e6e6e6;stroke-width:0.1px;"/><path d="M6.227,152.293l-0.011,3.67" style="fill:none;stroke:#e6e6e6;stroke-width:0.1px;"/><path d="M6.344,152.325l-0.011,3.67" style="fill:none;stroke:#e6e6e6;stroke-width:0.1px;"/><path d="M6.437,152.32l-0.011,3.671" style="fill:none;stroke:#e6e6e6;stroke-width:0.1px;"/><path d="M6.554,152.352l-0.011,3.671" style="fill:none;stroke:#e6e6e6;stroke-width:0.1px;"/><path d="M6.661,152.38l-0.011,3.67" style="fill:none;stroke:#e6e6e6;stroke-width:0.1px;"/><path d="M6.778,152.412l-0.011,3.67" style="fill:none;stroke:#e6e6e6;stroke-width:0.1px;"/><path d="M6.895,152.399l-0.011,3.67" style="fill:none;stroke:#e6e6e6;stroke-width:0.1px;"/><path d="M7.012,152.431l-0.011,3.67" style="fill:none;stroke:#e6e6e6;stroke-width:0.1px;"/><path d="M6.022,152.259l-0.011,3.67" style="fill:none;stroke:#e6e6e6;stroke-width:0.35px;"/><path d="M7.242,152.534l-0.011,3.671" style="fill:none;stroke:#e6e6e6;stroke-width:0.35px;"/><path d="M7.526,152.597l-0.011,3.671" style="fill:none;stroke:#e6e6e6;stroke-width:0.35px;"/><path d="M7.802,152.629l-0.011,3.671" style="fill:none;stroke:#e6e6e6;stroke-width:0.35px;"/><path d="M8.021,152.635l-0.011,3.671" style="fill:none;stroke:#e6e6e6;stroke-width:0.1px;"/><path d="M7.802,152.629l-0.011,3.671" style="fill:none;stroke:#e6e6e6;stroke-width:0.35px;"/><path d="M8.138,152.667l-0.011,3.671" style="fill:none;stroke:#e6e6e6;stroke-width:0.1px;"/><path d="M8.545,152.81l-0.011,3.67" style="fill:none;stroke:#e6e6e6;stroke-width:0.1px;"/><path d="M8.662,152.842l-0.011,3.67" style="fill:none;stroke:#e6e6e6;stroke-width:0.1px;"/><path d="M8.755,152.837l-0.011,3.671" style="fill:none;stroke:#e6e6e6;stroke-width:0.1px;"/><path d="M8.872,152.869l-0.011,3.671" style="fill:none;stroke:#e6e6e6;stroke-width:0.1px;"/><path d="M8.979,152.897l-0.011,3.67" style="fill:none;stroke:#e6e6e6;stroke-width:0.1px;"/><path d="M9.096,152.929l-0.011,3.67" style="fill:none;stroke:#e6e6e6;stroke-width:0.1px;"/><path d="M9.213,152.916l-0.011,3.671" style="fill:none;stroke:#e6e6e6;stroke-width:0.1px;"/><path d="M9.33,152.948l-0.011,3.671" style="fill:none;stroke:#e6e6e6;stroke-width:0.1px;"/><path d="M8.34,152.776l-0.011,3.67" style="fill:none;stroke:#e6e6e6;stroke-width:0.35px;"/><path d="M9.56,153.052l-0.011,3.67" style="fill:none;stroke:#e6e6e6;stroke-width:0.35px;"/><path d="M9.844,153.115l-0.011,3.67" style="fill:none;stroke:#e6e6e6;stroke-width:0.35px;"/></g><g id="tape"><path d="M16.411,130.621l20.544,5.368l5.523,-1.197l-19.332,-5.378l-6.735,1.207Z" style="fill:#d9d9d9;"/><path d="M37.09,139.074l-0.135,-3.085l5.501,-1.215l0.147,3.018l-5.513,1.282Z" style="fill:#f2f2f2;"/></g><g transform="matrix(0.916794,-0.399361,0.399361,0.916794,12.0297,-60.5078)"><text x="-69.47px" y="204.54px" style="font-family:'Helvetica-Bold', 'Helvetica';font-weight:700;font-size:5.169px;fill:#737373;stroke:#000;stroke-width:0.24px;stroke-linecap:butt;stroke-miterlimit:1.41421;">FRAGILE</text></g></g><g id="retail1" serif:id="retail"><g id="box1" serif:id="box"><path d="M75.617,138.045l26.922,-5.591l-21.341,-4.783l-26.933,4.835l21.352,5.539Z" style="fill:#1a1a1a;"/><path d="M75.452,161.906l27.164,-7.187l-0.172,-22.29l-26.753,5.525l-0.239,23.952Z" style="fill:#262626;"/><path d="M75.452,161.906l27.164,-7.187l-0.172,-22.29l-26.753,5.525l-0.239,23.952Z" style="fill:#262626;"/><path d="M54.258,132.508l21.439,5.503l-0.237,23.919l-21.322,-5.472l0.12,-23.95Z"/></g><g id="barcode1" serif:id="barcode"><path d="M55.715,151.765l-0.011,3.67" style="fill:none;stroke:#e6e6e6;stroke-width:0.35px;"/><path d="M55.934,151.77l-0.012,3.671" style="fill:none;stroke:#e6e6e6;stroke-width:0.1px;"/><path d="M55.715,151.765l-0.011,3.67" style="fill:none;stroke:#e6e6e6;stroke-width:0.35px;"/><path d="M56.05,151.803l-0.011,3.67" style="fill:none;stroke:#e6e6e6;stroke-width:0.1px;"/><path d="M56.458,151.945l-0.012,3.67" style="fill:none;stroke:#e6e6e6;stroke-width:0.1px;"/><path d="M56.574,151.977l-0.011,3.67" style="fill:none;stroke:#e6e6e6;stroke-width:0.1px;"/><path d="M56.668,151.972l-0.011,3.671" style="fill:none;stroke:#e6e6e6;stroke-width:0.1px;"/><path d="M56.784,152.004l-0.011,3.671" style="fill:none;stroke:#e6e6e6;stroke-width:0.1px;"/><path d="M56.892,152.032l-0.011,3.67" style="fill:none;stroke:#e6e6e6;stroke-width:0.1px;"/><path d="M57.009,152.064l-0.011,3.671" style="fill:none;stroke:#e6e6e6;stroke-width:0.1px;"/><path d="M57.126,152.051l-0.011,3.671" style="fill:none;stroke:#e6e6e6;stroke-width:0.1px;"/><path d="M57.243,152.083l-0.011,3.671" style="fill:none;stroke:#e6e6e6;stroke-width:0.1px;"/><path d="M56.253,151.911l-0.011,3.671" style="fill:none;stroke:#e6e6e6;stroke-width:0.35px;"/><path d="M57.473,152.187l-0.011,3.67" style="fill:none;stroke:#e6e6e6;stroke-width:0.35px;"/><path d="M57.757,152.25l-0.011,3.67" style="fill:none;stroke:#e6e6e6;stroke-width:0.35px;"/><path d="M58.033,152.282l-0.011,3.67" style="fill:none;stroke:#e6e6e6;stroke-width:0.35px;"/><path d="M58.251,152.288l-0.011,3.67" style="fill:none;stroke:#e6e6e6;stroke-width:0.1px;"/><path d="M58.033,152.282l-0.011,3.67" style="fill:none;stroke:#e6e6e6;stroke-width:0.35px;"/><path d="M58.368,152.32l-0.011,3.67" style="fill:none;stroke:#e6e6e6;stroke-width:0.1px;"/><path d="M58.775,152.462l-0.011,3.671" style="fill:none;stroke:#e6e6e6;stroke-width:0.1px;"/><path d="M58.892,152.494l-0.011,3.671" style="fill:none;stroke:#e6e6e6;stroke-width:0.1px;"/><path d="M58.986,152.489l-0.011,3.671" style="fill:none;stroke:#e6e6e6;stroke-width:0.1px;"/><path d="M59.102,152.521l-0.011,3.671" style="fill:none;stroke:#e6e6e6;stroke-width:0.1px;"/><path d="M59.21,152.549l-0.011,3.671" style="fill:none;stroke:#e6e6e6;stroke-width:0.1px;"/><path d="M59.327,152.581l-0.011,3.671" style="fill:none;stroke:#e6e6e6;stroke-width:0.1px;"/><path d="M59.444,152.568l-0.011,3.671" style="fill:none;stroke:#e6e6e6;stroke-width:0.1px;"/><path d="M59.561,152.6l-0.012,3.671" style="fill:none;stroke:#e6e6e6;stroke-width:0.1px;"/><path d="M58.571,152.428l-0.011,3.671" style="fill:none;stroke:#e6e6e6;stroke-width:0.35px;"/><path d="M59.791,152.704l-0.011,3.67" style="fill:none;stroke:#e6e6e6;stroke-width:0.35px;"/><path d="M60.075,152.767l-0.011,3.67" style="fill:none;stroke:#e6e6e6;stroke-width:0.35px;"/></g><g id="tape1" serif:id="tape"><path d="M66.642,130.273l20.543,5.368l5.523,-1.196l-19.332,-5.379l-6.734,1.207Z" style="fill:#d9d9d9;"/><path d="M87.32,138.726l-0.135,-3.085l5.502,-1.215l0.147,3.018l-5.514,1.282Z" style="fill:#f2f2f2;"/></g><g transform="matrix(0.916794,-0.399361,0.399361,0.916794,16.3481,-40.4766)"><text x="-19.239px" y="204.192px" style="font-family:'Helvetica-Bold', 'Helvetica';font-weight:700;font-size:5.169px;fill:#737373;stroke:#000;stroke-width:0.24px;stroke-linecap:butt;stroke-miterlimit:1.41421;">FRAGILE</text></g></g><g id="retail2" serif:id="retail"><g id="box2" serif:id="box"><path d="M125.456,137.656l26.922,-5.591l-21.341,-4.783l-26.933,4.835l21.352,5.539Z" style="fill:#1a1a1a;"/><path d="M125.291,161.517l27.164,-7.187l-0.172,-22.29l-26.753,5.525l-0.239,23.952Z" style="fill:#262626;"/><path d="M125.291,161.517l27.164,-7.187l-0.172,-22.29l-26.753,5.525l-0.239,23.952Z" style="fill:#262626;"/><path d="M104.097,132.119l21.439,5.503l-0.237,23.919l-21.322,-5.472l0.12,-23.95Z"/></g><g id="barcode2" serif:id="barcode"><path d="M105.554,151.376l-0.011,3.67" style="fill:none;stroke:#e6e6e6;stroke-width:0.35px;"/><path d="M105.773,151.381l-0.012,3.671" style="fill:none;stroke:#e6e6e6;stroke-width:0.1px;"/><path d="M105.554,151.376l-0.011,3.67" style="fill:none;stroke:#e6e6e6;stroke-width:0.35px;"/><path d="M105.889,151.414l-0.011,3.67" style="fill:none;stroke:#e6e6e6;stroke-width:0.1px;"/><path d="M106.296,151.556l-0.011,3.67" style="fill:none;stroke:#e6e6e6;stroke-width:0.1px;"/><path d="M106.413,151.588l-0.011,3.67" style="fill:none;stroke:#e6e6e6;stroke-width:0.1px;"/><path d="M106.507,151.583l-0.011,3.671" style="fill:none;stroke:#e6e6e6;stroke-width:0.1px;"/><path d="M106.623,151.615l-0.011,3.671" style="fill:none;stroke:#e6e6e6;stroke-width:0.1px;"/><path d="M106.731,151.643l-0.011,3.67" style="fill:none;stroke:#e6e6e6;stroke-width:0.1px;"/><path d="M106.848,151.675l-0.011,3.671" style="fill:none;stroke:#e6e6e6;stroke-width:0.1px;"/><path d="M106.965,151.662l-0.011,3.671" style="fill:none;stroke:#e6e6e6;stroke-width:0.1px;"/><path d="M107.082,151.694l-0.011,3.671" style="fill:none;stroke:#e6e6e6;stroke-width:0.1px;"/><path d="M106.092,151.522l-0.011,3.671" style="fill:none;stroke:#e6e6e6;stroke-width:0.35px;"/><path d="M107.312,151.798l-0.011,3.67" style="fill:none;stroke:#e6e6e6;stroke-width:0.35px;"/><path d="M107.596,151.861l-0.011,3.67" style="fill:none;stroke:#e6e6e6;stroke-width:0.35px;"/><path d="M107.872,151.893l-0.011,3.67" style="fill:none;stroke:#e6e6e6;stroke-width:0.35px;"/><path d="M108.09,151.899l-0.011,3.67" style="fill:none;stroke:#e6e6e6;stroke-width:0.1px;"/><path d="M107.872,151.893l-0.011,3.67" style="fill:none;stroke:#e6e6e6;stroke-width:0.35px;"/><path d="M108.207,151.931l-0.011,3.67" style="fill:none;stroke:#e6e6e6;stroke-width:0.1px;"/><path d="M108.614,152.073l-0.011,3.671" style="fill:none;stroke:#e6e6e6;stroke-width:0.1px;"/><path d="M108.731,152.105l-0.011,3.671" style="fill:none;stroke:#e6e6e6;stroke-width:0.1px;"/><path d="M108.825,152.1l-0.012,3.671" style="fill:none;stroke:#e6e6e6;stroke-width:0.1px;"/><path d="M108.941,152.132l-0.011,3.671" style="fill:none;stroke:#e6e6e6;stroke-width:0.1px;"/><path d="M109.049,152.16l-0.011,3.671" style="fill:none;stroke:#e6e6e6;stroke-width:0.1px;"/><path d="M109.166,152.192l-0.012,3.671" style="fill:none;stroke:#e6e6e6;stroke-width:0.1px;"/><path d="M109.283,152.179l-0.011,3.671" style="fill:none;stroke:#e6e6e6;stroke-width:0.1px;"/><path d="M109.399,152.211l-0.011,3.671" style="fill:none;stroke:#e6e6e6;stroke-width:0.1px;"/><path d="M108.41,152.039l-0.011,3.671" style="fill:none;stroke:#e6e6e6;stroke-width:0.35px;"/><path d="M109.63,152.315l-0.011,3.67" style="fill:none;stroke:#e6e6e6;stroke-width:0.35px;"/><path d="M109.914,152.378l-0.011,3.67" style="fill:none;stroke:#e6e6e6;stroke-width:0.35px;"/></g><g id="tape2" serif:id="tape"><path d="M116.481,129.884l20.543,5.368l5.523,-1.196l-19.332,-5.379l-6.734,1.207Z" style="fill:#d9d9d9;"/><path d="M137.159,138.337l-0.135,-3.085l5.502,-1.215l0.147,3.018l-5.514,1.282Z" style="fill:#f2f2f2;"/></g><g transform="matrix(0.916794,-0.399361,0.399361,0.916794,20.6504,-20.6053)"><text x="30.6px" y="203.803px" style="font-family:'Helvetica-Bold', 'Helvetica';font-weight:700;font-size:5.169px;fill:#737373;stroke:#000;stroke-width:0.24px;stroke-linecap:butt;stroke-miterlimit:1.41421;">FRAGILE</text></g></g><g id="retail3" serif:id="retail"><g id="box3" serif:id="box"><path d="M175.246,137.197l26.922,-5.591l-21.341,-4.783l-26.933,4.834l21.352,5.54Z" style="fill:#1a1a1a;"/><path d="M175.081,161.058l27.164,-7.188l-0.172,-22.289l-26.753,5.525l-0.239,23.952Z" style="fill:#262626;"/><path d="M175.081,161.058l27.164,-7.188l-0.172,-22.289l-26.753,5.525l-0.239,23.952Z" style="fill:#262626;"/><path d="M153.887,131.659l21.438,5.503l-0.236,23.92l-21.322,-5.473l0.12,-23.95Z"/></g><g id="barcode3" serif:id="barcode"><path d="M155.344,150.916l-0.012,3.671" style="fill:none;stroke:#e6e6e6;stroke-width:0.35px;"/><path d="M155.562,150.922l-0.011,3.671" style="fill:none;stroke:#e6e6e6;stroke-width:0.1px;"/><path d="M155.344,150.916l-0.012,3.671" style="fill:none;stroke:#e6e6e6;stroke-width:0.35px;"/><path d="M155.679,150.954l-0.011,3.671" style="fill:none;stroke:#e6e6e6;stroke-width:0.1px;"/><path d="M156.086,151.096l-0.011,3.671" style="fill:none;stroke:#e6e6e6;stroke-width:0.1px;"/><path d="M156.203,151.128l-0.011,3.671" style="fill:none;stroke:#e6e6e6;stroke-width:0.1px;"/><path d="M156.296,151.124l-0.011,3.67" style="fill:none;stroke:#e6e6e6;stroke-width:0.1px;"/><path d="M156.413,151.156l-0.011,3.671" style="fill:none;stroke:#e6e6e6;stroke-width:0.1px;"/><path d="M156.521,151.183l-0.011,3.671" style="fill:none;stroke:#e6e6e6;stroke-width:0.1px;"/><path d="M156.637,151.216l-0.011,3.67" style="fill:none;stroke:#e6e6e6;stroke-width:0.1px;"/><path d="M156.755,151.203l-0.011,3.67" style="fill:none;stroke:#e6e6e6;stroke-width:0.1px;"/><path d="M156.871,151.235l-0.011,3.67" style="fill:none;stroke:#e6e6e6;stroke-width:0.1px;"/><path d="M155.882,151.063l-0.012,3.67" style="fill:none;stroke:#e6e6e6;stroke-width:0.35px;"/><path d="M157.102,151.338l-0.011,3.671" style="fill:none;stroke:#e6e6e6;stroke-width:0.35px;"/><path d="M157.385,151.401l-0.011,3.671" style="fill:none;stroke:#e6e6e6;stroke-width:0.35px;"/><path d="M157.661,151.433l-0.011,3.671" style="fill:none;stroke:#e6e6e6;stroke-width:0.35px;"/><path d="M157.88,151.439l-0.011,3.671" style="fill:none;stroke:#e6e6e6;stroke-width:0.1px;"/><path d="M157.661,151.433l-0.011,3.671" style="fill:none;stroke:#e6e6e6;stroke-width:0.35px;"/><path d="M157.997,151.471l-0.011,3.671" style="fill:none;stroke:#e6e6e6;stroke-width:0.1px;"/><path d="M158.404,151.614l-0.011,3.67" style="fill:none;stroke:#e6e6e6;stroke-width:0.1px;"/><path d="M158.521,151.646l-0.011,3.67" style="fill:none;stroke:#e6e6e6;stroke-width:0.1px;"/><path d="M158.614,151.641l-0.011,3.671" style="fill:none;stroke:#e6e6e6;stroke-width:0.1px;"/><path d="M158.731,151.673l-0.011,3.671" style="fill:none;stroke:#e6e6e6;stroke-width:0.1px;"/><path d="M158.839,151.701l-0.011,3.67" style="fill:none;stroke:#e6e6e6;stroke-width:0.1px;"/><path d="M158.955,151.733l-0.011,3.67" style="fill:none;stroke:#e6e6e6;stroke-width:0.1px;"/><path d="M159.073,151.72l-0.012,3.67" style="fill:none;stroke:#e6e6e6;stroke-width:0.1px;"/><path d="M159.189,151.752l-0.011,3.67" style="fill:none;stroke:#e6e6e6;stroke-width:0.1px;"/><path d="M158.199,151.58l-0.011,3.67" style="fill:none;stroke:#e6e6e6;stroke-width:0.35px;"/><path d="M159.419,151.855l-0.011,3.671" style="fill:none;stroke:#e6e6e6;stroke-width:0.35px;"/><path d="M159.703,151.918l-0.011,3.671" style="fill:none;stroke:#e6e6e6;stroke-width:0.35px;"/></g><g id="tape3" serif:id="tape"><path d="M166.27,129.425l20.544,5.368l5.523,-1.197l-19.332,-5.378l-6.735,1.207Z" style="fill:#d9d9d9;"/><path d="M186.949,137.878l-0.135,-3.085l5.502,-1.215l0.146,3.017l-5.513,1.283Z" style="fill:#f2f2f2;"/></g><g transform="matrix(0.916794,-0.399361,0.399361,0.916794,24.9766,-0.759356)"><text x="80.39px" y="203.344px" style="font-family:'Helvetica-Bold', 'Helvetica';font-weight:700;font-size:5.169px;fill:#737373;stroke:#000;stroke-width:0.24px;stroke-linecap:butt;stroke-miterlimit:1.41421;">FRAGILE</text></g></g><g id="retail4" serif:id="retail"><g id="box4" serif:id="box"><path d="M154.356,107.264l26.922,-5.591l-21.341,-4.783l-26.933,4.834l21.352,5.54Z" style="fill:#1a1a1a;"/><path d="M154.192,131.125l27.163,-7.188l-0.172,-22.289l-26.753,5.525l-0.238,23.952Z" style="fill:#262626;"/><path d="M154.192,131.125l27.163,-7.188l-0.172,-22.289l-26.753,5.525l-0.238,23.952Z" style="fill:#262626;"/><path d="M132.997,101.726l21.439,5.503l-0.237,23.919l-21.322,-5.472l0.12,-23.95Z"/></g><g id="barcode4" serif:id="barcode"><path d="M134.454,120.983l-0.011,3.671" style="fill:none;stroke:#e6e6e6;stroke-width:0.35px;"/><path d="M134.673,120.989l-0.011,3.671" style="fill:none;stroke:#e6e6e6;stroke-width:0.1px;"/><path d="M134.454,120.983l-0.011,3.671" style="fill:none;stroke:#e6e6e6;stroke-width:0.35px;"/><path d="M134.79,121.021l-0.012,3.671" style="fill:none;stroke:#e6e6e6;stroke-width:0.1px;"/><path d="M135.197,121.163l-0.011,3.671" style="fill:none;stroke:#e6e6e6;stroke-width:0.1px;"/><path d="M135.314,121.195l-0.012,3.671" style="fill:none;stroke:#e6e6e6;stroke-width:0.1px;"/><path d="M135.407,121.191l-0.011,3.67" style="fill:none;stroke:#e6e6e6;stroke-width:0.1px;"/><path d="M135.524,121.223l-0.011,3.67" style="fill:none;stroke:#e6e6e6;stroke-width:0.1px;"/><path d="M135.631,121.25l-0.011,3.671" style="fill:none;stroke:#e6e6e6;stroke-width:0.1px;"/><path d="M135.748,121.282l-0.011,3.671" style="fill:none;stroke:#e6e6e6;stroke-width:0.1px;"/><path d="M135.865,121.269l-0.011,3.671" style="fill:none;stroke:#e6e6e6;stroke-width:0.1px;"/><path d="M135.982,121.302l-0.011,3.67" style="fill:none;stroke:#e6e6e6;stroke-width:0.1px;"/><path d="M134.992,121.129l-0.011,3.671" style="fill:none;stroke:#e6e6e6;stroke-width:0.35px;"/><path d="M136.212,121.405l-0.011,3.671" style="fill:none;stroke:#e6e6e6;stroke-width:0.35px;"/><path d="M136.496,121.468l-0.011,3.671" style="fill:none;stroke:#e6e6e6;stroke-width:0.35px;"/><path d="M136.772,121.5l-0.011,3.671" style="fill:none;stroke:#e6e6e6;stroke-width:0.35px;"/><path d="M136.991,121.506l-0.011,3.671" style="fill:none;stroke:#e6e6e6;stroke-width:0.1px;"/><path d="M136.772,121.5l-0.011,3.671" style="fill:none;stroke:#e6e6e6;stroke-width:0.35px;"/><path d="M137.107,121.538l-0.011,3.671" style="fill:none;stroke:#e6e6e6;stroke-width:0.1px;"/><path d="M137.515,121.68l-0.011,3.671" style="fill:none;stroke:#e6e6e6;stroke-width:0.1px;"/><path d="M137.631,121.712l-0.011,3.671" style="fill:none;stroke:#e6e6e6;stroke-width:0.1px;"/><path d="M137.725,121.708l-0.011,3.671" style="fill:none;stroke:#e6e6e6;stroke-width:0.1px;"/><path d="M137.842,121.74l-0.011,3.671" style="fill:none;stroke:#e6e6e6;stroke-width:0.1px;"/><path d="M137.949,121.768l-0.011,3.67" style="fill:none;stroke:#e6e6e6;stroke-width:0.1px;"/><path d="M138.066,121.8l-0.011,3.67" style="fill:none;stroke:#e6e6e6;stroke-width:0.1px;"/><path d="M138.183,121.787l-0.011,3.67" style="fill:none;stroke:#e6e6e6;stroke-width:0.1px;"/><path d="M138.3,121.819l-0.011,3.67" style="fill:none;stroke:#e6e6e6;stroke-width:0.1px;"/><path d="M137.31,121.647l-0.011,3.67" style="fill:none;stroke:#e6e6e6;stroke-width:0.35px;"/><path d="M138.53,121.922l-0.011,3.671" style="fill:none;stroke:#e6e6e6;stroke-width:0.35px;"/><path d="M138.814,121.985l-0.011,3.671" style="fill:none;stroke:#e6e6e6;stroke-width:0.35px;"/></g><g id="tape4" serif:id="tape"><path d="M145.381,99.491l20.544,5.369l5.523,-1.197l-19.332,-5.378l-6.735,1.206Z" style="fill:#d9d9d9;"/><path d="M166.06,107.945l-0.135,-3.085l5.501,-1.215l0.147,3.017l-5.513,1.283Z" style="fill:#f2f2f2;"/></g><g transform="matrix(0.916794,-0.399361,0.399361,0.916794,35.1926,-11.5925)"><text x="59.5px" y="173.411px" style="font-family:'Helvetica-Bold', 'Helvetica';font-weight:700;font-size:5.169px;fill:#737373;stroke:#000;stroke-width:0.24px;stroke-linecap:butt;stroke-miterlimit:1.41421;">FRAGILE</text></g></g><g id="retail5" serif:id="retail"><g id="box5" serif:id="box"><path d="M104.46,108.122l26.922,-5.592l-21.341,-4.782l-26.933,4.834l21.352,5.54Z" style="fill:#1a1a1a;"/><path d="M104.296,131.983l27.163,-7.188l-0.172,-22.289l-26.753,5.525l-0.238,23.952Z" style="fill:#262626;"/><path d="M104.296,131.983l27.163,-7.188l-0.172,-22.289l-26.753,5.525l-0.238,23.952Z" style="fill:#262626;"/><path d="M83.101,102.584l21.439,5.503l-0.237,23.919l-21.322,-5.472l0.12,-23.95Z"/></g><g id="barcode5" serif:id="barcode"><path d="M84.558,121.841l-0.011,3.67" style="fill:none;stroke:#e6e6e6;stroke-width:0.35px;"/><path d="M84.777,121.847l-0.011,3.67" style="fill:none;stroke:#e6e6e6;stroke-width:0.1px;"/><path d="M84.558,121.841l-0.011,3.67" style="fill:none;stroke:#e6e6e6;stroke-width:0.35px;"/><path d="M84.894,121.879l-0.012,3.67" style="fill:none;stroke:#e6e6e6;stroke-width:0.1px;"/><path d="M85.301,122.021l-0.011,3.671" style="fill:none;stroke:#e6e6e6;stroke-width:0.1px;"/><path d="M85.417,122.053l-0.011,3.671" style="fill:none;stroke:#e6e6e6;stroke-width:0.1px;"/><path d="M85.511,122.048l-0.011,3.671" style="fill:none;stroke:#e6e6e6;stroke-width:0.1px;"/><path d="M85.628,122.08l-0.011,3.671" style="fill:none;stroke:#e6e6e6;stroke-width:0.1px;"/><path d="M85.735,122.108l-0.011,3.671" style="fill:none;stroke:#e6e6e6;stroke-width:0.1px;"/><path d="M85.852,122.14l-0.011,3.671" style="fill:none;stroke:#e6e6e6;stroke-width:0.1px;"/><path d="M85.969,122.127l-0.011,3.671" style="fill:none;stroke:#e6e6e6;stroke-width:0.1px;"/><path d="M86.086,122.159l-0.011,3.671" style="fill:none;stroke:#e6e6e6;stroke-width:0.1px;"/><path d="M85.096,121.987l-0.011,3.671" style="fill:none;stroke:#e6e6e6;stroke-width:0.35px;"/><path d="M86.316,122.263l-0.011,3.67" style="fill:none;stroke:#e6e6e6;stroke-width:0.35px;"/><path d="M86.6,122.326l-0.011,3.67" style="fill:none;stroke:#e6e6e6;stroke-width:0.35px;"/><path d="M86.876,122.358l-0.011,3.67" style="fill:none;stroke:#e6e6e6;stroke-width:0.35px;"/><path d="M87.095,122.364l-0.011,3.67" style="fill:none;stroke:#e6e6e6;stroke-width:0.1px;"/><path d="M86.876,122.358l-0.011,3.67" style="fill:none;stroke:#e6e6e6;stroke-width:0.35px;"/><path d="M87.211,122.396l-0.011,3.67" style="fill:none;stroke:#e6e6e6;stroke-width:0.1px;"/><path d="M87.619,122.538l-0.011,3.671" style="fill:none;stroke:#e6e6e6;stroke-width:0.1px;"/><path d="M87.735,122.57l-0.011,3.671" style="fill:none;stroke:#e6e6e6;stroke-width:0.1px;"/><path d="M87.829,122.565l-0.011,3.671" style="fill:none;stroke:#e6e6e6;stroke-width:0.1px;"/><path d="M87.946,122.598l-0.012,3.67" style="fill:none;stroke:#e6e6e6;stroke-width:0.1px;"/><path d="M88.053,122.625l-0.011,3.671" style="fill:none;stroke:#e6e6e6;stroke-width:0.1px;"/><path d="M88.17,122.657l-0.011,3.671" style="fill:none;stroke:#e6e6e6;stroke-width:0.1px;"/><path d="M88.287,122.644l-0.011,3.671" style="fill:none;stroke:#e6e6e6;stroke-width:0.1px;"/><path d="M88.404,122.676l-0.011,3.671" style="fill:none;stroke:#e6e6e6;stroke-width:0.1px;"/><path d="M87.414,122.504l-0.011,3.671" style="fill:none;stroke:#e6e6e6;stroke-width:0.35px;"/><path d="M88.634,122.78l-0.011,3.671" style="fill:none;stroke:#e6e6e6;stroke-width:0.35px;"/><path d="M88.918,122.843l-0.011,3.671" style="fill:none;stroke:#e6e6e6;stroke-width:0.35px;"/></g><g id="tape5" serif:id="tape"><path d="M95.485,100.349l20.543,5.368l5.524,-1.196l-19.332,-5.379l-6.735,1.207Z" style="fill:#d9d9d9;"/><path d="M116.163,108.802l-0.135,-3.085l5.502,-1.214l0.147,3.017l-5.514,1.282Z" style="fill:#f2f2f2;"/></g><g transform="matrix(0.916794,-0.399361,0.399361,0.916794,30.6985,-31.4476)"><text x="9.604px" y="174.269px" style="font-family:'Helvetica-Bold', 'Helvetica';font-weight:700;font-size:5.169px;fill:#737373;stroke:#000;stroke-width:0.24px;stroke-linecap:butt;stroke-miterlimit:1.41421;">FRAGILE</text></g></g><g id="retail6" serif:id="retail"><g id="box6" serif:id="box"><path d="M54.257,107.829l26.922,-5.591l-21.34,-4.782l-26.934,4.834l21.352,5.539Z" style="fill:#1a1a1a;"/><path d="M54.093,131.691l27.163,-7.188l-0.171,-22.289l-26.753,5.525l-0.239,23.952Z" style="fill:#262626;"/><path d="M54.093,131.691l27.163,-7.188l-0.171,-22.289l-26.753,5.525l-0.239,23.952Z" style="fill:#262626;"/><path d="M32.898,102.292l21.439,5.503l-0.236,23.919l-21.322,-5.472l0.119,-23.95Z"/></g><g id="barcode6" serif:id="barcode"><path d="M34.355,121.549l-0.011,3.67" style="fill:none;stroke:#e6e6e6;stroke-width:0.35px;"/><path d="M34.574,121.555l-0.011,3.67" style="fill:none;stroke:#e6e6e6;stroke-width:0.1px;"/><path d="M34.355,121.549l-0.011,3.67" style="fill:none;stroke:#e6e6e6;stroke-width:0.35px;"/><path d="M34.691,121.587l-0.011,3.67" style="fill:none;stroke:#e6e6e6;stroke-width:0.1px;"/><path d="M35.098,121.729l-0.011,3.671" style="fill:none;stroke:#e6e6e6;stroke-width:0.1px;"/><path d="M35.215,121.761l-0.011,3.671" style="fill:none;stroke:#e6e6e6;stroke-width:0.1px;"/><path d="M35.308,121.756l-0.011,3.671" style="fill:none;stroke:#e6e6e6;stroke-width:0.1px;"/><path d="M35.425,121.788l-0.011,3.671" style="fill:none;stroke:#e6e6e6;stroke-width:0.1px;"/><path d="M35.532,121.816l-0.011,3.671" style="fill:none;stroke:#e6e6e6;stroke-width:0.1px;"/><path d="M35.649,121.848l-0.011,3.671" style="fill:none;stroke:#e6e6e6;stroke-width:0.1px;"/><path d="M35.766,121.835l-0.011,3.671" style="fill:none;stroke:#e6e6e6;stroke-width:0.1px;"/><path d="M35.883,121.867l-0.011,3.671" style="fill:none;stroke:#e6e6e6;stroke-width:0.1px;"/><path d="M34.893,121.695l-0.011,3.671" style="fill:none;stroke:#e6e6e6;stroke-width:0.35px;"/><path d="M36.113,121.971l-0.011,3.67" style="fill:none;stroke:#e6e6e6;stroke-width:0.35px;"/><path d="M36.397,122.034l-0.011,3.67" style="fill:none;stroke:#e6e6e6;stroke-width:0.35px;"/><path d="M36.673,122.066l-0.011,3.67" style="fill:none;stroke:#e6e6e6;stroke-width:0.35px;"/><path d="M36.892,122.072l-0.011,3.67" style="fill:none;stroke:#e6e6e6;stroke-width:0.1px;"/><path d="M36.673,122.066l-0.011,3.67" style="fill:none;stroke:#e6e6e6;stroke-width:0.35px;"/><path d="M37.009,122.104l-0.011,3.67" style="fill:none;stroke:#e6e6e6;stroke-width:0.1px;"/><path d="M37.416,122.246l-0.011,3.671" style="fill:none;stroke:#e6e6e6;stroke-width:0.1px;"/><path d="M37.533,122.278l-0.011,3.671" style="fill:none;stroke:#e6e6e6;stroke-width:0.1px;"/><path d="M37.626,122.273l-0.011,3.671" style="fill:none;stroke:#e6e6e6;stroke-width:0.1px;"/><path d="M37.743,122.305l-0.011,3.671" style="fill:none;stroke:#e6e6e6;stroke-width:0.1px;"/><path d="M37.85,122.333l-0.011,3.671" style="fill:none;stroke:#e6e6e6;stroke-width:0.1px;"/><path d="M37.967,122.365l-0.011,3.671" style="fill:none;stroke:#e6e6e6;stroke-width:0.1px;"/><path d="M38.084,122.352l-0.011,3.671" style="fill:none;stroke:#e6e6e6;stroke-width:0.1px;"/><path d="M38.201,122.384l-0.011,3.671" style="fill:none;stroke:#e6e6e6;stroke-width:0.1px;"/><path d="M37.211,122.212l-0.011,3.671" style="fill:none;stroke:#e6e6e6;stroke-width:0.35px;"/><path d="M38.431,122.488l-0.011,3.67" style="fill:none;stroke:#e6e6e6;stroke-width:0.35px;"/><path d="M38.715,122.551l-0.011,3.67" style="fill:none;stroke:#e6e6e6;stroke-width:0.35px;"/></g><g id="tape6" serif:id="tape"><path d="M45.282,100.057l20.544,5.368l5.523,-1.196l-19.332,-5.379l-6.735,1.207Z" style="fill:#d9d9d9;"/><path d="M65.961,108.51l-0.135,-3.085l5.501,-1.214l0.147,3.017l-5.513,1.282Z" style="fill:#f2f2f2;"/></g><g transform="matrix(0.916794,-0.399361,0.399361,0.916794,26.6379,-51.521)"><text x="-40.599px" y="173.977px" style="font-family:'Helvetica-Bold', 'Helvetica';font-weight:700;font-size:5.169px;fill:#737373;stroke:#000;stroke-width:0.24px;stroke-linecap:butt;stroke-miterlimit:1.41421;">FRAGILE</text></g></g><g id="retail7" serif:id="retail"><g id="box7" serif:id="box"><path d="M81.952,78.358l26.922,-5.591l-21.341,-4.783l-26.933,4.835l21.352,5.539Z" style="fill:#1a1a1a;"/><path d="M81.788,102.219l27.163,-7.187l-0.172,-22.29l-26.753,5.525l-0.238,23.952Z" style="fill:#262626;"/><path d="M81.788,102.219l27.163,-7.187l-0.172,-22.29l-26.753,5.525l-0.238,23.952Z" style="fill:#262626;"/><path d="M60.593,72.821l21.439,5.503l-0.237,23.919l-21.322,-5.472l0.12,-23.95Z"/></g><g id="barcode7" serif:id="barcode"><path d="M62.05,92.078l-0.011,3.67" style="fill:none;stroke:#e6e6e6;stroke-width:0.35px;"/><path d="M62.269,92.083l-0.011,3.671" style="fill:none;stroke:#e6e6e6;stroke-width:0.1px;"/><path d="M62.05,92.078l-0.011,3.67" style="fill:none;stroke:#e6e6e6;stroke-width:0.35px;"/><path d="M62.386,92.116l-0.011,3.67" style="fill:none;stroke:#e6e6e6;stroke-width:0.1px;"/><path d="M62.793,92.258l-0.011,3.67" style="fill:none;stroke:#e6e6e6;stroke-width:0.1px;"/><path d="M62.91,92.29l-0.011,3.67" style="fill:none;stroke:#e6e6e6;stroke-width:0.1px;"/><path d="M63.003,92.285l-0.011,3.671" style="fill:none;stroke:#e6e6e6;stroke-width:0.1px;"/><path d="M63.12,92.317l-0.011,3.671" style="fill:none;stroke:#e6e6e6;stroke-width:0.1px;"/><path d="M63.227,92.345l-0.011,3.67" style="fill:none;stroke:#e6e6e6;stroke-width:0.1px;"/><path d="M63.344,92.377l-0.011,3.671" style="fill:none;stroke:#e6e6e6;stroke-width:0.1px;"/><path d="M63.461,92.364l-0.011,3.671" style="fill:none;stroke:#e6e6e6;stroke-width:0.1px;"/><path d="M63.578,92.396l-0.011,3.671" style="fill:none;stroke:#e6e6e6;stroke-width:0.1px;"/><path d="M62.588,92.224l-0.011,3.671" style="fill:none;stroke:#e6e6e6;stroke-width:0.35px;"/><path d="M63.808,92.5l-0.011,3.67" style="fill:none;stroke:#e6e6e6;stroke-width:0.35px;"/><path d="M64.092,92.563l-0.011,3.67" style="fill:none;stroke:#e6e6e6;stroke-width:0.35px;"/><path d="M64.368,92.595l-0.011,3.67" style="fill:none;stroke:#e6e6e6;stroke-width:0.35px;"/><path d="M64.587,92.601l-0.011,3.67" style="fill:none;stroke:#e6e6e6;stroke-width:0.1px;"/><path d="M64.368,92.595l-0.011,3.67" style="fill:none;stroke:#e6e6e6;stroke-width:0.35px;"/><path d="M64.704,92.633l-0.012,3.67" style="fill:none;stroke:#e6e6e6;stroke-width:0.1px;"/><path d="M65.111,92.775l-0.011,3.671" style="fill:none;stroke:#e6e6e6;stroke-width:0.1px;"/><path d="M65.227,92.807l-0.011,3.671" style="fill:none;stroke:#e6e6e6;stroke-width:0.1px;"/><path d="M65.321,92.802l-0.011,3.671" style="fill:none;stroke:#e6e6e6;stroke-width:0.1px;"/><path d="M65.438,92.834l-0.011,3.671" style="fill:none;stroke:#e6e6e6;stroke-width:0.1px;"/><path d="M65.545,92.862l-0.011,3.671" style="fill:none;stroke:#e6e6e6;stroke-width:0.1px;"/><path d="M65.662,92.894l-0.011,3.671" style="fill:none;stroke:#e6e6e6;stroke-width:0.1px;"/><path d="M65.779,92.881l-0.011,3.671" style="fill:none;stroke:#e6e6e6;stroke-width:0.1px;"/><path d="M65.896,92.913l-0.011,3.671" style="fill:none;stroke:#e6e6e6;stroke-width:0.1px;"/><path d="M64.906,92.741l-0.011,3.671" style="fill:none;stroke:#e6e6e6;stroke-width:0.35px;"/><path d="M66.126,93.017l-0.011,3.67" style="fill:none;stroke:#e6e6e6;stroke-width:0.35px;"/><path d="M66.41,93.08l-0.011,3.67" style="fill:none;stroke:#e6e6e6;stroke-width:0.35px;"/></g><g id="tape7" serif:id="tape"><path d="M72.977,70.586l20.544,5.368l5.523,-1.196l-19.332,-5.379l-6.735,1.207Z" style="fill:#d9d9d9;"/><path d="M93.656,79.039l-0.135,-3.085l5.501,-1.215l0.147,3.018l-5.513,1.282Z" style="fill:#f2f2f2;"/></g><g transform="matrix(0.916794,-0.399361,0.399361,0.916794,40.7119,-42.9129)"><text x="-12.904px" y="144.505px" style="font-family:'Helvetica-Bold', 'Helvetica';font-weight:700;font-size:5.169px;fill:#737373;stroke:#000;stroke-width:0.24px;stroke-linecap:butt;stroke-miterlimit:1.41421;">FRAGILE</text></g></g><g id="retail8" serif:id="retail"><g id="box8" serif:id="box"><path d="M131.853,77.636l26.922,-5.591l-21.34,-4.783l-26.934,4.834l21.352,5.54Z" style="fill:#1a1a1a;"/><path d="M131.689,101.497l27.164,-7.188l-0.172,-22.289l-26.753,5.525l-0.239,23.952Z" style="fill:#262626;"/><path d="M131.689,101.497l27.164,-7.188l-0.172,-22.289l-26.753,5.525l-0.239,23.952Z" style="fill:#262626;"/><path d="M110.495,72.099l21.438,5.502l-0.236,23.92l-21.322,-5.473l0.12,-23.949Z"/></g><g id="barcode8" serif:id="barcode"><path d="M111.951,91.355l-0.011,3.671" style="fill:none;stroke:#e6e6e6;stroke-width:0.35px;"/><path d="M112.17,91.361l-0.011,3.671" style="fill:none;stroke:#e6e6e6;stroke-width:0.1px;"/><path d="M111.951,91.355l-0.011,3.671" style="fill:none;stroke:#e6e6e6;stroke-width:0.35px;"/><path d="M112.287,91.393l-0.011,3.671" style="fill:none;stroke:#e6e6e6;stroke-width:0.1px;"/><path d="M112.694,91.536l-0.011,3.67" style="fill:none;stroke:#e6e6e6;stroke-width:0.1px;"/><path d="M112.811,91.568l-0.011,3.67" style="fill:none;stroke:#e6e6e6;stroke-width:0.1px;"/><path d="M112.904,91.563l-0.011,3.671" style="fill:none;stroke:#e6e6e6;stroke-width:0.1px;"/><path d="M113.021,91.595l-0.011,3.671" style="fill:none;stroke:#e6e6e6;stroke-width:0.1px;"/><path d="M113.128,91.623l-0.011,3.67" style="fill:none;stroke:#e6e6e6;stroke-width:0.1px;"/><path d="M113.245,91.655l-0.011,3.67" style="fill:none;stroke:#e6e6e6;stroke-width:0.1px;"/><path d="M113.362,91.642l-0.011,3.67" style="fill:none;stroke:#e6e6e6;stroke-width:0.1px;"/><path d="M113.479,91.674l-0.011,3.67" style="fill:none;stroke:#e6e6e6;stroke-width:0.1px;"/><path d="M112.489,91.502l-0.011,3.67" style="fill:none;stroke:#e6e6e6;stroke-width:0.35px;"/><path d="M113.709,91.777l-0.011,3.671" style="fill:none;stroke:#e6e6e6;stroke-width:0.35px;"/><path d="M113.993,91.84l-0.011,3.671" style="fill:none;stroke:#e6e6e6;stroke-width:0.35px;"/><path d="M114.269,91.872l-0.011,3.671" style="fill:none;stroke:#e6e6e6;stroke-width:0.35px;"/><path d="M114.488,91.878l-0.011,3.671" style="fill:none;stroke:#e6e6e6;stroke-width:0.1px;"/><path d="M114.269,91.872l-0.011,3.671" style="fill:none;stroke:#e6e6e6;stroke-width:0.35px;"/><path d="M114.605,91.91l-0.011,3.671" style="fill:none;stroke:#e6e6e6;stroke-width:0.1px;"/><path d="M115.012,92.053l-0.011,3.67" style="fill:none;stroke:#e6e6e6;stroke-width:0.1px;"/><path d="M115.129,92.085l-0.011,3.67" style="fill:none;stroke:#e6e6e6;stroke-width:0.1px;"/><path d="M115.222,92.08l-0.011,3.671" style="fill:none;stroke:#e6e6e6;stroke-width:0.1px;"/><path d="M115.339,92.112l-0.011,3.671" style="fill:none;stroke:#e6e6e6;stroke-width:0.1px;"/><path d="M115.446,92.14l-0.011,3.67" style="fill:none;stroke:#e6e6e6;stroke-width:0.1px;"/><path d="M115.563,92.172l-0.011,3.67" style="fill:none;stroke:#e6e6e6;stroke-width:0.1px;"/><path d="M115.68,92.159l-0.011,3.67" style="fill:none;stroke:#e6e6e6;stroke-width:0.1px;"/><path d="M115.797,92.191l-0.011,3.671" style="fill:none;stroke:#e6e6e6;stroke-width:0.1px;"/><path d="M114.807,92.019l-0.011,3.67" style="fill:none;stroke:#e6e6e6;stroke-width:0.35px;"/><path d="M116.027,92.294l-0.011,3.671" style="fill:none;stroke:#e6e6e6;stroke-width:0.35px;"/><path d="M116.311,92.357l-0.011,3.671" style="fill:none;stroke:#e6e6e6;stroke-width:0.35px;"/></g><g id="tape8" serif:id="tape"><path d="M122.878,69.864l20.544,5.368l5.523,-1.197l-19.332,-5.378l-6.735,1.207Z" style="fill:#d9d9d9;"/><path d="M143.557,78.317l-0.135,-3.085l5.502,-1.215l0.146,3.017l-5.513,1.283Z" style="fill:#f2f2f2;"/></g><g transform="matrix(0.916794,-0.399361,0.399361,0.916794,45.1524,-23.0443)"><text x="36.998px" y="143.783px" style="font-family:'Helvetica-Bold', 'Helvetica';font-weight:700;font-size:5.169px;fill:#737373;stroke:#000;stroke-width:0.24px;stroke-linecap:butt;stroke-miterlimit:1.41421;">FRAGILE</text></g></g><g id="retail9" serif:id="retail"><g id="box9" serif:id="box"><path d="M110.546,47.398l26.922,-5.591l-21.341,-4.783l-26.933,4.834l21.352,5.54Z" style="fill:#1a1a1a;"/><path d="M110.381,71.259l27.164,-7.188l-0.172,-22.289l-26.753,5.525l-0.239,23.952Z" style="fill:#262626;"/><path d="M110.381,71.259l27.164,-7.188l-0.172,-22.289l-26.753,5.525l-0.239,23.952Z" style="fill:#262626;"/><path d="M89.187,41.86l21.439,5.503l-0.237,23.919l-21.322,-5.472l0.12,-23.95Z"/></g><g id="barcode9" serif:id="barcode"><path d="M90.644,61.117l-0.011,3.671" style="fill:none;stroke:#e6e6e6;stroke-width:0.35px;"/><path d="M90.862,61.123l-0.011,3.67" style="fill:none;stroke:#e6e6e6;stroke-width:0.1px;"/><path d="M90.644,61.117l-0.011,3.671" style="fill:none;stroke:#e6e6e6;stroke-width:0.35px;"/><path d="M90.979,61.155l-0.011,3.671" style="fill:none;stroke:#e6e6e6;stroke-width:0.1px;"/><path d="M91.386,61.297l-0.011,3.671" style="fill:none;stroke:#e6e6e6;stroke-width:0.1px;"/><path d="M91.503,61.329l-0.011,3.671" style="fill:none;stroke:#e6e6e6;stroke-width:0.1px;"/><path d="M91.596,61.325l-0.011,3.67" style="fill:none;stroke:#e6e6e6;stroke-width:0.1px;"/><path d="M91.713,61.357l-0.011,3.67" style="fill:none;stroke:#e6e6e6;stroke-width:0.1px;"/><path d="M91.821,61.384l-0.011,3.671" style="fill:none;stroke:#e6e6e6;stroke-width:0.1px;"/><path d="M91.937,61.416l-0.011,3.671" style="fill:none;stroke:#e6e6e6;stroke-width:0.1px;"/><path d="M92.055,61.403l-0.011,3.671" style="fill:none;stroke:#e6e6e6;stroke-width:0.1px;"/><path d="M92.171,61.435l-0.011,3.671" style="fill:none;stroke:#e6e6e6;stroke-width:0.1px;"/><path d="M91.182,61.263l-0.012,3.671" style="fill:none;stroke:#e6e6e6;stroke-width:0.35px;"/><path d="M92.402,61.539l-0.011,3.671" style="fill:none;stroke:#e6e6e6;stroke-width:0.35px;"/><path d="M92.686,61.602l-0.012,3.671" style="fill:none;stroke:#e6e6e6;stroke-width:0.35px;"/><path d="M92.961,61.634l-0.011,3.671" style="fill:none;stroke:#e6e6e6;stroke-width:0.35px;"/><path d="M93.18,61.64l-0.011,3.671" style="fill:none;stroke:#e6e6e6;stroke-width:0.1px;"/><path d="M92.961,61.634l-0.011,3.671" style="fill:none;stroke:#e6e6e6;stroke-width:0.35px;"/><path d="M93.297,61.672l-0.011,3.671" style="fill:none;stroke:#e6e6e6;stroke-width:0.1px;"/><path d="M93.704,61.814l-0.011,3.671" style="fill:none;stroke:#e6e6e6;stroke-width:0.1px;"/><path d="M93.821,61.846l-0.011,3.671" style="fill:none;stroke:#e6e6e6;stroke-width:0.1px;"/><path d="M93.914,61.842l-0.011,3.67" style="fill:none;stroke:#e6e6e6;stroke-width:0.1px;"/><path d="M94.031,61.874l-0.011,3.67" style="fill:none;stroke:#e6e6e6;stroke-width:0.1px;"/><path d="M94.139,61.901l-0.011,3.671" style="fill:none;stroke:#e6e6e6;stroke-width:0.1px;"/><path d="M94.255,61.933l-0.011,3.671" style="fill:none;stroke:#e6e6e6;stroke-width:0.1px;"/><path d="M94.373,61.92l-0.011,3.671" style="fill:none;stroke:#e6e6e6;stroke-width:0.1px;"/><path d="M94.489,61.952l-0.011,3.671" style="fill:none;stroke:#e6e6e6;stroke-width:0.1px;"/><path d="M93.499,61.78l-0.011,3.671" style="fill:none;stroke:#e6e6e6;stroke-width:0.35px;"/><path d="M94.72,62.056l-0.012,3.671" style="fill:none;stroke:#e6e6e6;stroke-width:0.35px;"/><path d="M95.003,62.119l-0.011,3.671" style="fill:none;stroke:#e6e6e6;stroke-width:0.35px;"/></g><g id="tape9" serif:id="tape"><path d="M101.57,39.625l20.544,5.368l5.523,-1.196l-19.332,-5.378l-6.735,1.206Z" style="fill:#d9d9d9;"/><path d="M122.249,48.078l-0.135,-3.085l5.502,-1.214l0.146,3.017l-5.513,1.282Z" style="fill:#f2f2f2;"/></g><g transform="matrix(0.916794,-0.399361,0.399361,0.916794,55.4556,-34.0699)"><text x="15.69px" y="113.545px" style="font-family:'Helvetica-Bold', 'Helvetica';font-weight:700;font-size:5.169px;fill:#737373;stroke:#000;stroke-width:0.24px;stroke-linecap:butt;stroke-miterlimit:1.41421;">FRAGILE</text></g></g></g></svg>